<svg width="375" height="812" viewBox="0 0 375 812" fill="none" xmlns="http://www.w3.org/2000/svg">
<g clip-path="url(#clip0_3633_5818)">
<rect width="375" height="812" fill="#FEFEFE"/>
<path fill-rule="evenodd" clip-rule="evenodd" d="M421 0H-57V488.929C-91.3242 492.525 -111.815 497.696 -118.365 500.145C-133.118 508.736 -155.644 532.793 -127.727 560.286C-99.8101 587.78 -73.5384 559.141 -63.8922 541.385C-61.4563 538.68 -59.1612 536.294 -57 534.198V567.278C-64.7557 572.323 -72.508 576.468 -78.3616 579.188C-106.96 590.185 -96.5191 607.827 -87.7241 615.273C-81.3432 624.934 -65.7083 611.012 -51.8976 594.479C-51.5974 594.119 -51.2934 593.755 -50.9857 593.386C-44.7721 585.939 -37.0557 576.69 -29.2531 570.842H-5.06694C-0.731537 576.572 -1.85579 583.295 -3.09656 590.715C-3.18523 591.245 -3.27449 591.779 -3.3624 592.317C-7.18948 615.706 6.11133 617.737 14.4121 615.273C17.7363 613.805 20.9867 611.553 24.0034 608.961C33.0275 601.208 47.3104 603.258 44.8133 614.889C43.2352 622.24 41.3783 628.261 39.269 635.099C38.9 636.296 38.5233 637.517 38.139 638.775C30.8075 662.773 9.96724 708.357 -4.12944 737.599C-7.06802 743.695 -10.7109 749.416 -14.3608 755.114C-35.0365 787.394 -26.3775 804.091 -18.7823 808.585C13.2204 827.831 28.5976 761.045 32.2859 725.246C31.7141 688.302 47.5111 648.773 59.3084 626.201C63.0814 618.982 70.6825 611.146 77.592 615.46C84.908 620.027 86.1514 633.988 85.3302 646.021C84.8911 652.455 82.8603 658.652 80.6929 664.727C68.0284 700.221 77.3798 711.893 84.205 713.218C106.894 717.512 115.856 706.597 118.551 695.017C120.671 685.908 116.523 676.92 112.592 668.402C112.489 668.178 112.386 667.954 112.283 667.731C103.296 648.235 103.451 634.55 105.393 627.994C105.884 626.334 106.847 624.851 107.923 623.495C119.944 608.347 128.522 612.466 134.063 622.044C141.768 635.363 146.365 651.272 150.108 666.197C156.074 689.986 160.077 726.179 161.658 746.725C163.461 764.919 170.332 775.086 176.747 780.214C181.677 784.155 188.924 782.836 192.324 777.519C199.205 766.76 195.122 753.216 191.448 746.725C166.935 704.111 159.105 660.809 158.254 644.484C158.254 615.132 166.868 613.443 175.197 619.54C182.636 624.985 185.985 634.059 189.21 642.794C189.521 643.639 189.832 644.48 190.145 645.314C197.258 664.283 205.118 671.678 212.016 673.171C222.825 675.51 225.944 660.596 225.842 649.537C225.61 624.304 235.118 619.85 240.814 621.287C271.183 621.287 279.675 641.609 280.301 658.812C280.435 662.494 280.197 666.192 279.959 669.885C279.592 675.596 279.225 681.296 280.236 686.904C285.016 713.407 303.904 710.96 314.011 705.485C335.8 693.113 314.011 655.654 300.393 638.47C277.242 610.977 281.668 593.221 286.775 587.78C324.906 560.974 351.461 598.949 359.973 621.287C383.804 703.08 408.487 689.734 417.85 672.837C437.352 617.251 411.514 584.997 388.978 571.247C388.75 571.108 388.52 570.973 388.289 570.842H421V424.227C447.028 425.473 451.054 416.837 449.342 411.651C456.832 390.343 437.142 377.57 426.361 373.847C424.598 373.704 422.81 373.64 421 373.65V0Z" fill="#4B3838"/>
</g>
<defs>
<clipPath id="clip0_3633_5818">
<rect width="375" height="812" fill="white"/>
</clipPath>
</defs>
</svg>
